<svg width="512" height="512" viewBox="0 0 512 512" fill="none" xmlns="http://www.w3.org/2000/svg" class="LoginLayout_logoBtn__svg__pHSYI"><path fill="#5267EA" d="M0 0h512v512H0z"></path><path d="M339.074 245.632c40.671 0 73.641-32.971 73.641-73.642s-32.97-73.641-73.641-73.641c-40.671 0-73.641 32.97-73.641 73.641 0 40.671 32.97 73.642 73.641 73.642z" fill="#171D26"></path><path d="M243.353 98H96v147.353h147.353V98z" fill="#EE9AB2"></path><path d="M339.076 276.794l38.427 68.052 38.498 68.052H262.15l38.498-68.052 38.428-68.052z" fill="#FFC550"></path><path d="M169.641 413.945c40.671 0 73.642-32.971 73.642-73.642s-32.971-73.641-73.642-73.641S96 299.632 96 340.303c0 40.671 32.97 73.642 73.641 73.642z" fill="#FAFAEE"></path></svg>